<svg width="184" height="197" viewBox="0 0 184 197" fill="none" xmlns="http://www.w3.org/2000/svg">
<path d="M183.414 183.414C184.195 182.633 184.195 181.367 183.414 180.586L170.686 167.858C169.905 167.077 168.639 167.077 167.858 167.858C167.077 168.639 167.077 169.905 167.858 170.686L179.172 182L167.858 193.314C167.077 194.095 167.077 195.361 167.858 196.142C168.639 196.923 169.905 196.923 170.686 196.142L183.414 183.414ZM4 2V0H0V2H4ZM182 180C83.6933 180 4 100.307 4 2H0C0 102.516 81.4842 184 182 184V180Z" fill="#352C2C"/>
</svg>
