<svg width="184" height="197" viewBox="0 0 184 197" fill="none" xmlns="http://www.w3.org/2000/svg">
<path d="M0.585785 183.414C-0.195267 182.633 -0.195267 181.367 0.585785 180.586L13.3137 167.858C14.0948 167.077 15.3611 167.077 16.1421 167.858C16.9232 168.639 16.9232 169.905 16.1421 170.686L4.82843 182L16.1421 193.314C16.9232 194.095 16.9232 195.361 16.1421 196.142C15.3611 196.923 14.0948 196.923 13.3137 196.142L0.585785 183.414ZM180 2V0H184V2H180ZM2 180C100.307 180 180 100.307 180 2H184C184 102.516 102.516 184 2 184V180Z" fill="#352C2C"/>
</svg>
